<svg 
 xmlns="http://www.w3.org/2000/svg"
 xmlns:xlink="http://www.w3.org/1999/xlink"
 width="18px" height="11px">
<path fill-rule="evenodd"  fill="rgb(241, 89, 42)"
 d="M16.713,10.999 L1.205,10.999 C1.205,10.999 -0.000,10.999 -0.000,9.778 L-0.000,1.837 L3.828,4.955 L1.297,9.727 L4.519,5.518 L7.031,7.563 C7.031,7.563 7.794,8.594 8.959,8.594 C8.959,8.594 9.937,8.747 10.941,7.602 L13.487,5.523 L16.740,9.744 L14.296,4.861 L17.999,1.837 L17.999,9.816 C17.999,9.816 17.879,10.999 16.713,10.999 ZM7.775,7.312 L0.028,1.214 C0.028,1.214 -0.023,-0.001 1.186,-0.001 L16.773,-0.001 C16.773,-0.001 17.978,0.011 17.978,1.233 L10.305,7.312 C10.305,7.312 9.221,8.687 7.775,7.312 Z"/>
</svg>