<svg 
 xmlns="http://www.w3.org/2000/svg"
 xmlns:xlink="http://www.w3.org/1999/xlink"
 width="15px" height="15px">
<path fill-rule="evenodd"  fill="rgb(241, 89, 42)"
 d="M11.000,9.000 C10.000,10.000 10.000,11.000 9.000,11.000 C8.000,11.000 7.000,10.000 6.000,9.000 C4.999,8.000 3.999,7.000 3.999,6.000 C3.999,4.999 4.999,4.999 6.000,3.999 C7.000,2.999 3.999,-0.002 2.999,-0.002 C1.999,-0.002 -0.001,2.999 -0.001,2.999 C-0.001,4.999 2.054,9.054 3.999,11.000 C5.945,12.946 10.000,15.001 12.001,15.001 C12.001,15.001 15.001,13.001 15.001,12.000 C15.001,11.000 12.001,8.000 11.000,9.000 Z"/>
</svg>